<?xml version="1.0" encoding="UTF-8"?><svg xmlns="http://www.w3.org/2000/svg" xmlns:xlink="http://www.w3.org/1999/xlink" fill-opacity="1" color-rendering="auto" color-interpolation="auto" text-rendering="auto" stroke="black" stroke-linecap="square" width="1076" stroke-miterlimit="10" shape-rendering="auto" stroke-opacity="1" fill="black" stroke-dasharray="none" font-weight="normal" stroke-width="1" height="1080" font-family="'Dialog'" font-style="normal" stroke-linejoin="miter" font-size="12px" stroke-dashoffset="0" image-rendering="auto">
  <!--Generated by ySVG 2.6-->
  <defs id="genericDefs"/>
  <g>
    <defs id="defs1">
      <linearGradient x1="173.9463" gradientUnits="userSpaceOnUse" x2="366.0537" y1="-110" y2="-70" id="linearGradient1" spreadMethod="reflect">
        <stop stop-opacity="1" stop-color="rgb(232,238,247)" offset="0%"/>
        <stop stop-opacity="1" stop-color="white" offset="100%"/>
      </linearGradient>
      <linearGradient x1="50" gradientUnits="userSpaceOnUse" x2="130" y1="10" y2="50" id="linearGradient2" spreadMethod="reflect">
        <stop stop-opacity="1" stop-color="rgb(232,238,247)" offset="0%"/>
        <stop stop-opacity="1" stop-color="white" offset="100%"/>
      </linearGradient>
      <linearGradient x1="173.9463" gradientUnits="userSpaceOnUse" x2="366.0537" y1="10" y2="50" id="linearGradient3" spreadMethod="reflect">
        <stop stop-opacity="1" stop-color="rgb(232,238,247)" offset="0%"/>
        <stop stop-opacity="1" stop-color="white" offset="100%"/>
      </linearGradient>
      <linearGradient x1="164.5288" gradientUnits="userSpaceOnUse" x2="375.4712" y1="130" y2="170" id="linearGradient4" spreadMethod="reflect">
        <stop stop-opacity="1" stop-color="rgb(232,238,247)" offset="0%"/>
        <stop stop-opacity="1" stop-color="white" offset="100%"/>
      </linearGradient>
      <linearGradient x1="193.9619" gradientUnits="userSpaceOnUse" x2="346.0381" y1="227.6753" y2="372.3247" id="linearGradient5" spreadMethod="reflect">
        <stop stop-opacity="1" stop-color="rgb(232,238,247)" offset="0%"/>
        <stop stop-opacity="1" stop-color="white" offset="100%"/>
      </linearGradient>
      <linearGradient x1="164.5288" gradientUnits="userSpaceOnUse" x2="375.4712" y1="430" y2="470" id="linearGradient6" spreadMethod="reflect">
        <stop stop-opacity="1" stop-color="rgb(232,238,247)" offset="0%"/>
        <stop stop-opacity="1" stop-color="white" offset="100%"/>
      </linearGradient>
      <linearGradient x1="230" gradientUnits="userSpaceOnUse" x2="310" y1="548.75" y2="588.75" id="linearGradient7" spreadMethod="reflect">
        <stop stop-opacity="1" stop-color="rgb(232,238,247)" offset="0%"/>
        <stop stop-opacity="1" stop-color="white" offset="100%"/>
      </linearGradient>
      <linearGradient x1="623.9463" gradientUnits="userSpaceOnUse" x2="816.0537" y1="-110" y2="-70" id="linearGradient8" spreadMethod="reflect">
        <stop stop-opacity="1" stop-color="rgb(232,238,247)" offset="0%"/>
        <stop stop-opacity="1" stop-color="white" offset="100%"/>
      </linearGradient>
      <linearGradient x1="614.5288" gradientUnits="userSpaceOnUse" x2="825.4712" y1="10" y2="50" id="linearGradient9" spreadMethod="reflect">
        <stop stop-opacity="1" stop-color="rgb(232,238,247)" offset="0%"/>
        <stop stop-opacity="1" stop-color="white" offset="100%"/>
      </linearGradient>
      <linearGradient x1="614.5288" gradientUnits="userSpaceOnUse" x2="825.4712" y1="130" y2="170" id="linearGradient10" spreadMethod="reflect">
        <stop stop-opacity="1" stop-color="rgb(232,238,247)" offset="0%"/>
        <stop stop-opacity="1" stop-color="white" offset="100%"/>
      </linearGradient>
      <linearGradient x1="536.514" gradientUnits="userSpaceOnUse" x2="903.486" y1="280" y2="320" id="linearGradient11" spreadMethod="reflect">
        <stop stop-opacity="1" stop-color="rgb(232,238,247)" offset="0%"/>
        <stop stop-opacity="1" stop-color="white" offset="100%"/>
      </linearGradient>
      <linearGradient x1="623.9463" gradientUnits="userSpaceOnUse" x2="816.0537" y1="400" y2="440" id="linearGradient12" spreadMethod="reflect">
        <stop stop-opacity="1" stop-color="rgb(232,238,247)" offset="0%"/>
        <stop stop-opacity="1" stop-color="white" offset="100%"/>
      </linearGradient>
      <linearGradient x1="193.9619" gradientUnits="userSpaceOnUse" x2="346.0381" y1="647.6753" y2="792.3247" id="linearGradient13" spreadMethod="reflect">
        <stop stop-opacity="1" stop-color="rgb(232,238,247)" offset="0%"/>
        <stop stop-opacity="1" stop-color="white" offset="100%"/>
      </linearGradient>
      <linearGradient x1="230" gradientUnits="userSpaceOnUse" x2="310" y1="880" y2="920" id="linearGradient14" spreadMethod="reflect">
        <stop stop-opacity="1" stop-color="rgb(232,238,247)" offset="0%"/>
        <stop stop-opacity="1" stop-color="white" offset="100%"/>
      </linearGradient>
      <linearGradient x1="643.9619" gradientUnits="userSpaceOnUse" x2="796.0381" y1="647.6753" y2="792.3247" id="linearGradient15" spreadMethod="reflect">
        <stop stop-opacity="1" stop-color="rgb(232,238,247)" offset="0%"/>
        <stop stop-opacity="1" stop-color="white" offset="100%"/>
      </linearGradient>
      <linearGradient x1="680" gradientUnits="userSpaceOnUse" x2="760" y1="860" y2="940" id="linearGradient16" spreadMethod="reflect">
        <stop stop-opacity="1" stop-color="rgb(232,238,247)" offset="0%"/>
        <stop stop-opacity="1" stop-color="white" offset="100%"/>
      </linearGradient>
      <linearGradient x1="884.5288" gradientUnits="userSpaceOnUse" x2="1095.4712" y1="10" y2="50" id="linearGradient17" spreadMethod="reflect">
        <stop stop-opacity="1" stop-color="rgb(232,238,247)" offset="0%"/>
        <stop stop-opacity="1" stop-color="white" offset="100%"/>
      </linearGradient>
      <linearGradient x1="950" gradientUnits="userSpaceOnUse" x2="1030" y1="110" y2="190" id="linearGradient18" spreadMethod="reflect">
        <stop stop-opacity="1" stop-color="rgb(232,238,247)" offset="0%"/>
        <stop stop-opacity="1" stop-color="white" offset="100%"/>
      </linearGradient>
      <linearGradient x1="680" gradientUnits="userSpaceOnUse" x2="760" y1="550" y2="590" id="linearGradient19" spreadMethod="reflect">
        <stop stop-opacity="1" stop-color="rgb(232,238,247)" offset="0%"/>
        <stop stop-opacity="1" stop-color="white" offset="100%"/>
      </linearGradient>
      <linearGradient x1="893.9463" gradientUnits="userSpaceOnUse" x2="1086.0537" y1="-110" y2="-70" id="linearGradient20" spreadMethod="reflect">
        <stop stop-opacity="1" stop-color="rgb(232,238,247)" offset="0%"/>
        <stop stop-opacity="1" stop-color="white" offset="100%"/>
      </linearGradient>
      <clipPath clipPathUnits="userSpaceOnUse" id="clipPath1">
        <path d="M0 0 L1076 0 L1076 1080 L0 1080 L0 0 Z"/>
      </clipPath>
      <clipPath clipPathUnits="userSpaceOnUse" id="clipPath2">
        <path d="M35 -125 L1111 -125 L1111 955 L35 955 L35 -125 Z"/>
      </clipPath>
    </defs>
    <g fill="white" text-rendering="geometricPrecision" shape-rendering="geometricPrecision" transform="translate(-35,125)" stroke="white">
      <rect x="35" width="1076" height="1080" y="-125" clip-path="url(#clipPath2)" stroke="none"/>
    </g>
    <g fill="rgb(255,204,0)" text-rendering="geometricPrecision" shape-rendering="geometricPrecision" transform="matrix(1,0,0,1,-35,125)" stroke="rgb(255,204,0)">
      <circle r="0.5" clip-path="url(#clipPath2)" cx="270" cy="-30.5" stroke="none"/>
    </g>
    <g text-rendering="geometricPrecision" stroke-miterlimit="1.45" shape-rendering="geometricPrecision" transform="matrix(1,0,0,1,-35,125)" stroke-linecap="butt">
      <circle fill="none" r="0.5" clip-path="url(#clipPath2)" cx="270" cy="-30.5"/>
    </g>
    <g fill="url(#linearGradient1)" text-rendering="geometricPrecision" shape-rendering="geometricPrecision" transform="matrix(1,0,0,1,-35,125)" stroke="url(#linearGradient1)">
      <rect x="173.9463" y="-110" clip-path="url(#clipPath2)" width="192.1074" rx="20" ry="20" height="40" stroke="none"/>
    </g>
    <g text-rendering="geometricPrecision" stroke-miterlimit="1.45" shape-rendering="geometricPrecision" transform="matrix(1,0,0,1,-35,125)" stroke-linecap="butt">
      <rect x="173.9463" y="-110" clip-path="url(#clipPath2)" fill="none" width="192.1074" rx="20" ry="20" height="40"/>
      <text x="193.0518" xml:space="preserve" y="-85.8457" clip-path="url(#clipPath2)" font-family="sans-serif" stroke="none">Speicherbereich auf LEDs</text>
    </g>
    <g fill="url(#linearGradient2)" text-rendering="geometricPrecision" shape-rendering="geometricPrecision" transform="matrix(1,0,0,1,-35,125)" stroke="url(#linearGradient2)">
      <circle r="20" clip-path="url(#clipPath2)" cx="90" cy="30" stroke="none"/>
    </g>
    <g text-rendering="geometricPrecision" stroke-miterlimit="1.45" shape-rendering="geometricPrecision" transform="matrix(1,0,0,1,-35,125)" stroke-linecap="butt">
      <circle fill="none" r="20" clip-path="url(#clipPath2)" cx="90" cy="30"/>
      <text x="68.6924" xml:space="preserve" y="34.1543" clip-path="url(#clipPath2)" font-family="sans-serif" stroke="none">Anfang</text>
    </g>
    <g fill="url(#linearGradient3)" text-rendering="geometricPrecision" shape-rendering="geometricPrecision" transform="matrix(1,0,0,1,-35,125)" stroke="url(#linearGradient3)">
      <path d="M184.1463 10 L366.0537 10 L355.8537 50 L173.9463 50 Z" stroke="none" clip-path="url(#clipPath2)"/>
    </g>
    <g text-rendering="geometricPrecision" stroke-miterlimit="1.45" shape-rendering="geometricPrecision" transform="matrix(1,0,0,1,-35,125)" stroke-linecap="butt">
      <path fill="none" d="M184.1463 10 L366.0537 10 L355.8537 50 L173.9463 50 Z" clip-path="url(#clipPath2)"/>
      <text x="182.2969" xml:space="preserve" y="34.1543" clip-path="url(#clipPath2)" font-family="sans-serif" stroke="none">Einlesen der Schalterstellung</text>
    </g>
    <g fill="url(#linearGradient4)" text-rendering="geometricPrecision" shape-rendering="geometricPrecision" transform="matrix(1,0,0,1,-35,125)" stroke="url(#linearGradient4)">
      <path d="M164.5288 130 L375.4712 130 L375.4712 170 L164.5288 170 Z" stroke="none" clip-path="url(#clipPath2)"/>
    </g>
    <g text-rendering="geometricPrecision" stroke-miterlimit="1.45" shape-rendering="geometricPrecision" transform="matrix(1,0,0,1,-35,125)" stroke-linecap="butt">
      <path fill="none" d="M164.5288 130 L375.4712 130 L375.4712 170 L164.5288 170 Z" clip-path="url(#clipPath2)"/>
      <text x="168.1963" xml:space="preserve" y="154.1543" clip-path="url(#clipPath2)" font-family="sans-serif" stroke="none">Verarbeitung der Schalterstellung</text>
    </g>
    <g fill="url(#linearGradient5)" text-rendering="geometricPrecision" shape-rendering="geometricPrecision" transform="matrix(1,0,0,1,-35,125)" stroke="url(#linearGradient5)">
      <path d="M270 227.6753 L346.0381 300 L270 372.3247 L193.9619 300 Z" stroke="none" clip-path="url(#clipPath2)"/>
    </g>
    <g text-rendering="geometricPrecision" stroke-miterlimit="1.45" shape-rendering="geometricPrecision" transform="matrix(1,0,0,1,-35,125)" stroke-linecap="butt">
      <path fill="none" d="M270 227.6753 L346.0381 300 L270 372.3247 L193.9619 300 Z" clip-path="url(#clipPath2)"/>
      <text x="225.2578" xml:space="preserve" y="304.1543" clip-path="url(#clipPath2)" font-family="sans-serif" stroke="none">Schalter 7 ein?</text>
    </g>
    <g fill="url(#linearGradient6)" text-rendering="geometricPrecision" shape-rendering="geometricPrecision" transform="matrix(1,0,0,1,-35,125)" stroke="url(#linearGradient6)">
      <path d="M164.5288 430 L375.4712 430 L375.4712 470 L164.5288 470 Z" stroke="none" clip-path="url(#clipPath2)"/>
    </g>
    <g text-rendering="geometricPrecision" stroke-miterlimit="1.45" shape-rendering="geometricPrecision" transform="matrix(1,0,0,1,-35,125)" stroke-linecap="butt">
      <path fill="none" d="M164.5288 430 L375.4712 430 L375.4712 470 L164.5288 470 Z" clip-path="url(#clipPath2)"/>
      <text x="190.9424" xml:space="preserve" y="454.1543" clip-path="url(#clipPath2)" font-family="sans-serif" stroke="none">Initialisieren der Variablen</text>
    </g>
    <g fill="url(#linearGradient7)" text-rendering="geometricPrecision" shape-rendering="geometricPrecision" transform="matrix(1,0,0,1,-35,125)" stroke="url(#linearGradient7)">
      <rect x="230" width="80" height="40" y="548.75" clip-path="url(#clipPath2)" stroke="none"/>
    </g>
    <g text-rendering="geometricPrecision" stroke-miterlimit="1.45" shape-rendering="geometricPrecision" transform="matrix(1,0,0,1,-35,125)" stroke-linecap="butt">
      <rect fill="none" x="230" width="80" height="40" y="548.75" clip-path="url(#clipPath2)"/>
      <path fill="none" d="M240 548.75 L240 588.75 M300 548.75 L300 588.75 M240 548.75 Z" clip-path="url(#clipPath2)"/>
      <text x="246.085" xml:space="preserve" y="572.9043" clip-path="url(#clipPath2)" font-family="sans-serif" stroke="none">Anzeige</text>
    </g>
    <g fill="url(#linearGradient8)" text-rendering="geometricPrecision" shape-rendering="geometricPrecision" transform="matrix(1,0,0,1,-35,125)" stroke="url(#linearGradient8)">
      <rect x="623.9463" y="-110" clip-path="url(#clipPath2)" width="192.1074" rx="20" ry="20" height="40" stroke="none"/>
    </g>
    <g text-rendering="geometricPrecision" stroke-miterlimit="1.45" shape-rendering="geometricPrecision" transform="matrix(1,0,0,1,-35,125)" stroke-linecap="butt">
      <rect x="623.9463" y="-110" clip-path="url(#clipPath2)" fill="none" width="192.1074" rx="20" ry="20" height="40"/>
      <text x="696.085" xml:space="preserve" y="-85.8457" clip-path="url(#clipPath2)" font-family="sans-serif" stroke="none">Anzeige</text>
    </g>
    <g fill="url(#linearGradient9)" text-rendering="geometricPrecision" shape-rendering="geometricPrecision" transform="matrix(1,0,0,1,-35,125)" stroke="url(#linearGradient9)">
      <path d="M614.5288 10 L825.4712 10 L825.4712 50 L614.5288 50 Z" stroke="none" clip-path="url(#clipPath2)"/>
    </g>
    <g text-rendering="geometricPrecision" stroke-miterlimit="1.45" shape-rendering="geometricPrecision" transform="matrix(1,0,0,1,-35,125)" stroke-linecap="butt">
      <path fill="none" d="M614.5288 10 L825.4712 10 L825.4712 50 L614.5288 50 Z" clip-path="url(#clipPath2)"/>
      <text x="656.9648" xml:space="preserve" y="34.1543" clip-path="url(#clipPath2)" font-family="sans-serif" stroke="none">Einlesen der Adresse</text>
    </g>
    <g fill="url(#linearGradient10)" text-rendering="geometricPrecision" shape-rendering="geometricPrecision" transform="matrix(1,0,0,1,-35,125)" stroke="url(#linearGradient10)">
      <path d="M614.5288 130 L825.4712 130 L825.4712 170 L614.5288 170 Z" stroke="none" clip-path="url(#clipPath2)"/>
    </g>
    <g text-rendering="geometricPrecision" stroke-miterlimit="1.45" shape-rendering="geometricPrecision" transform="matrix(1,0,0,1,-35,125)" stroke-linecap="butt">
      <path fill="none" d="M614.5288 130 L825.4712 130 L825.4712 170 L614.5288 170 Z" clip-path="url(#clipPath2)"/>
      <text x="642.8643" xml:space="preserve" y="154.1543" clip-path="url(#clipPath2)" font-family="sans-serif" stroke="none">Verarbeitung der Adresse</text>
    </g>
    <g fill="url(#linearGradient11)" text-rendering="geometricPrecision" shape-rendering="geometricPrecision" transform="matrix(1,0,0,1,-35,125)" stroke="url(#linearGradient11)">
      <path d="M536.514 280 L903.486 280 L903.486 320 L536.514 320 Z" stroke="none" clip-path="url(#clipPath2)"/>
    </g>
    <g text-rendering="geometricPrecision" stroke-miterlimit="1.45" shape-rendering="geometricPrecision" transform="matrix(1,0,0,1,-35,125)" stroke-linecap="butt">
      <path fill="none" d="M536.514 280 L903.486 280 L903.486 320 L536.514 320 Z" clip-path="url(#clipPath2)"/>
      <text x="554.6514" xml:space="preserve" y="304.1543" clip-path="url(#clipPath2)" font-family="sans-serif" stroke="none">Festlegung des Bitmusters und der Dauer der Ausgabe</text>
    </g>
    <g fill="url(#linearGradient12)" text-rendering="geometricPrecision" shape-rendering="geometricPrecision" transform="matrix(1,0,0,1,-35,125)" stroke="url(#linearGradient12)">
      <path d="M634.1463 400 L816.0537 400 L805.8537 440 L623.9463 440 Z" stroke="none" clip-path="url(#clipPath2)"/>
    </g>
    <g text-rendering="geometricPrecision" stroke-miterlimit="1.45" shape-rendering="geometricPrecision" transform="matrix(1,0,0,1,-35,125)" stroke-linecap="butt">
      <path fill="none" d="M634.1463 400 L816.0537 400 L805.8537 440 L623.9463 440 Z" clip-path="url(#clipPath2)"/>
      <text x="646.9951" xml:space="preserve" y="424.1543" clip-path="url(#clipPath2)" font-family="sans-serif" stroke="none">Ausgabe des Bitmusters</text>
    </g>
    <g fill="url(#linearGradient13)" text-rendering="geometricPrecision" shape-rendering="geometricPrecision" transform="matrix(1,0,0,1,-35,125)" stroke="url(#linearGradient13)">
      <path d="M270 647.6753 L346.0381 720 L270 792.3247 L193.9619 720 Z" stroke="none" clip-path="url(#clipPath2)"/>
    </g>
    <g text-rendering="geometricPrecision" stroke-miterlimit="1.45" shape-rendering="geometricPrecision" transform="matrix(1,0,0,1,-35,125)" stroke-linecap="butt">
      <path fill="none" d="M270 647.6753 L346.0381 720 L270 792.3247 L193.9619 720 Z" clip-path="url(#clipPath2)"/>
      <text x="192.8027" xml:space="preserve" y="724.1543" clip-path="url(#clipPath2)" font-family="sans-serif" stroke="none">Alle Bitmuster angezeigt?</text>
    </g>
    <g fill="url(#linearGradient14)" text-rendering="geometricPrecision" shape-rendering="geometricPrecision" transform="matrix(1,0,0,1,-35,125)" stroke="url(#linearGradient14)">
      <circle r="20" clip-path="url(#clipPath2)" cx="270" cy="900" stroke="none"/>
    </g>
    <g text-rendering="geometricPrecision" stroke-miterlimit="1.45" shape-rendering="geometricPrecision" transform="matrix(1,0,0,1,-35,125)" stroke-linecap="butt">
      <circle fill="none" r="20" clip-path="url(#clipPath2)" cx="270" cy="900"/>
      <text x="248.6924" xml:space="preserve" y="904.1543" clip-path="url(#clipPath2)" font-family="sans-serif" stroke="none">Anfang</text>
    </g>
    <g fill="url(#linearGradient15)" text-rendering="geometricPrecision" shape-rendering="geometricPrecision" transform="matrix(1,0,0,1,-35,125)" stroke="url(#linearGradient15)">
      <path d="M720 647.6753 L796.0381 720 L720 792.3247 L643.9619 720 Z" stroke="none" clip-path="url(#clipPath2)"/>
    </g>
    <g text-rendering="geometricPrecision" stroke-miterlimit="1.45" shape-rendering="geometricPrecision" transform="matrix(1,0,0,1,-35,125)" stroke-linecap="butt">
      <path fill="none" d="M720 647.6753 L796.0381 720 L720 792.3247 L643.9619 720 Z" clip-path="url(#clipPath2)"/>
      <text x="648.0059" xml:space="preserve" y="724.1543" clip-path="url(#clipPath2)" font-family="sans-serif" stroke="none">Ausgabedauer erreicht?</text>
    </g>
    <g fill="url(#linearGradient16)" text-rendering="geometricPrecision" shape-rendering="geometricPrecision" transform="matrix(1,0,0,1,-35,125)" stroke="url(#linearGradient16)">
      <circle r="40" clip-path="url(#clipPath2)" cx="720" cy="900" stroke="none"/>
    </g>
    <g text-rendering="geometricPrecision" stroke-miterlimit="1.45" shape-rendering="geometricPrecision" transform="matrix(1,0,0,1,-35,125)" stroke-linecap="butt">
      <circle fill="none" r="40" clip-path="url(#clipPath2)" cx="720" cy="900"/>
      <text x="682.7754" xml:space="preserve" y="904.1543" clip-path="url(#clipPath2)" font-family="sans-serif" stroke="none">End Anzeige</text>
    </g>
    <g fill="url(#linearGradient17)" text-rendering="geometricPrecision" shape-rendering="geometricPrecision" transform="matrix(1,0,0,1,-35,125)" stroke="url(#linearGradient17)">
      <path d="M884.5288 10 L1095.4712 10 L1095.4712 50 L884.5288 50 Z" stroke="none" clip-path="url(#clipPath2)"/>
    </g>
    <g text-rendering="geometricPrecision" stroke-miterlimit="1.45" shape-rendering="geometricPrecision" transform="matrix(1,0,0,1,-35,125)" stroke-linecap="butt">
      <path fill="none" d="M884.5288 10 L1095.4712 10 L1095.4712 50 L884.5288 50 Z" clip-path="url(#clipPath2)"/>
      <text x="946.8926" xml:space="preserve" y="34.1543" clip-path="url(#clipPath2)" font-family="sans-serif" stroke="none">0,333s warten</text>
    </g>
    <g fill="url(#linearGradient18)" text-rendering="geometricPrecision" shape-rendering="geometricPrecision" transform="matrix(1,0,0,1,-35,125)" stroke="url(#linearGradient18)">
      <circle r="40" clip-path="url(#clipPath2)" cx="990" cy="150" stroke="none"/>
    </g>
    <g text-rendering="geometricPrecision" stroke-miterlimit="1.45" shape-rendering="geometricPrecision" transform="matrix(1,0,0,1,-35,125)" stroke-linecap="butt">
      <circle fill="none" r="40" clip-path="url(#clipPath2)" cx="990" cy="150"/>
      <text x="954.7676" xml:space="preserve" y="154.1543" clip-path="url(#clipPath2)" font-family="sans-serif" stroke="none">End Warten</text>
    </g>
    <g fill="url(#linearGradient19)" text-rendering="geometricPrecision" shape-rendering="geometricPrecision" transform="matrix(1,0,0,1,-35,125)" stroke="url(#linearGradient19)">
      <rect x="680" width="80" height="40" y="550" clip-path="url(#clipPath2)" stroke="none"/>
    </g>
    <g text-rendering="geometricPrecision" stroke-miterlimit="1.45" shape-rendering="geometricPrecision" transform="matrix(1,0,0,1,-35,125)" stroke-linecap="butt">
      <rect fill="none" x="680" width="80" height="40" y="550" clip-path="url(#clipPath2)"/>
      <path fill="none" d="M690 550 L690 590 M750 550 L750 590 M690 550 Z" clip-path="url(#clipPath2)"/>
      <text x="698.0771" xml:space="preserve" y="574.1543" clip-path="url(#clipPath2)" font-family="sans-serif" stroke="none">Warten</text>
    </g>
    <g fill="url(#linearGradient20)" text-rendering="geometricPrecision" shape-rendering="geometricPrecision" transform="matrix(1,0,0,1,-35,125)" stroke="url(#linearGradient20)">
      <rect x="893.9463" y="-110" clip-path="url(#clipPath2)" width="192.1074" rx="20" ry="20" height="40" stroke="none"/>
    </g>
    <g text-rendering="geometricPrecision" stroke-miterlimit="1.45" shape-rendering="geometricPrecision" transform="matrix(1,0,0,1,-35,125)" stroke-linecap="butt">
      <rect x="893.9463" y="-110" clip-path="url(#clipPath2)" fill="none" width="192.1074" rx="20" ry="20" height="40"/>
      <text x="968.0771" xml:space="preserve" y="-85.8457" clip-path="url(#clipPath2)" font-family="sans-serif" stroke="none">Warten</text>
    </g>
    <g text-rendering="geometricPrecision" stroke-miterlimit="1.45" shape-rendering="geometricPrecision" transform="matrix(1,0,0,1,-35,125)" stroke-linecap="butt">
      <path fill="none" d="M270 -69.9902 L270 2.0312" clip-path="url(#clipPath2)"/>
      <path d="M270 10.0312 L275 -1.9688 L270 1.0312 L265 -1.9688 Z" clip-path="url(#clipPath2)" stroke="none"/>
      <path fill="none" d="M109.9951 30 L171.0207 30" clip-path="url(#clipPath2)"/>
      <path d="M179.0207 30 L167.0207 25 L170.0207 30 L167.0207 35 Z" clip-path="url(#clipPath2)" stroke="none"/>
      <path fill="none" d="M270 50.0098 L270 122.0312" clip-path="url(#clipPath2)"/>
      <path d="M270 130.0312 L275 118.0312 L270 121.0312 L265 118.0312 Z" clip-path="url(#clipPath2)" stroke="none"/>
      <path fill="none" d="M270 170.0317 L270 219.6861" clip-path="url(#clipPath2)"/>
      <path d="M270 227.6861 L275 215.6861 L270 218.6861 L265 215.6861 Z" clip-path="url(#clipPath2)" stroke="none"/>
      <path fill="none" d="M346.0693 300 L450 300 L450 30 L368.9229 30" clip-path="url(#clipPath2)"/>
      <path d="M360.9229 30 L372.9229 35 L369.9229 30 L372.9229 25 Z" clip-path="url(#clipPath2)" stroke="none"/>
      <text x="394.6943" xml:space="preserve" y="334.1543" clip-path="url(#clipPath2)" font-family="sans-serif" stroke="none">Nein</text>
      <path fill="none" d="M270 372.3267 L270 422.0128" clip-path="url(#clipPath2)"/>
      <path d="M270 430.0128 L275 418.0128 L270 421.0128 L265 418.0128 Z" clip-path="url(#clipPath2)" stroke="none"/>
      <text x="234.5537" xml:space="preserve" y="405.3167" clip-path="url(#clipPath2)" font-family="sans-serif" stroke="none">Ja</text>
      <path fill="none" d="M270 469.9753 L270 540.7346" clip-path="url(#clipPath2)"/>
      <path d="M270 548.7346 L275 536.7346 L270 539.7346 L265 536.7346 Z" clip-path="url(#clipPath2)" stroke="none"/>
      <path fill="none" d="M720 -69.9902 L720 2.0312" clip-path="url(#clipPath2)"/>
      <path d="M720 10.0312 L725 -1.9688 L720 1.0312 L715 -1.9688 Z" clip-path="url(#clipPath2)" stroke="none"/>
      <path fill="none" d="M720 50.0098 L720 122.0312" clip-path="url(#clipPath2)"/>
      <path d="M720 130.0312 L725 118.0312 L720 121.0312 L715 118.0312 Z" clip-path="url(#clipPath2)" stroke="none"/>
      <path fill="none" d="M720 170.0317 L720 271.978" clip-path="url(#clipPath2)"/>
      <path d="M720 279.978 L725 267.978 L720 270.978 L715 267.978 Z" clip-path="url(#clipPath2)" stroke="none"/>
      <path fill="none" d="M720 320.0098 L720 392.0312" clip-path="url(#clipPath2)"/>
      <path d="M720 400.0312 L725 388.0312 L720 391.0312 L715 388.0312 Z" clip-path="url(#clipPath2)" stroke="none"/>
      <path fill="none" d="M270 588.7271 L270 639.6653" clip-path="url(#clipPath2)"/>
      <path d="M270 647.6653 L275 635.6653 L270 638.6653 L265 635.6653 Z" clip-path="url(#clipPath2)" stroke="none"/>
      <path fill="none" d="M346.0693 720 L450 720 L450 450 L383.5127 450" clip-path="url(#clipPath2)"/>
      <path d="M375.5127 450 L387.5127 455 L384.5127 450 L387.5127 445 Z" clip-path="url(#clipPath2)" stroke="none"/>
      <text x="394.6943" xml:space="preserve" y="754.1543" clip-path="url(#clipPath2)" font-family="sans-serif" stroke="none">Nein</text>
      <path fill="none" d="M270 792.29 L270 871.9885" clip-path="url(#clipPath2)"/>
      <path d="M270 879.9885 L275 867.9885 L270 870.9885 L265 867.9885 Z" clip-path="url(#clipPath2)" stroke="none"/>
      <text x="234.5537" xml:space="preserve" y="840.3167" clip-path="url(#clipPath2)" font-family="sans-serif" stroke="none">Ja</text>
      <path fill="none" d="M720 792.29 L720 852.0032" clip-path="url(#clipPath2)"/>
      <path d="M720 860.0032 L725 848.0032 L720 851.0032 L715 848.0032 Z" clip-path="url(#clipPath2)" stroke="none"/>
      <text x="684.5537" xml:space="preserve" y="830.3167" clip-path="url(#clipPath2)" font-family="sans-serif" stroke="none">Ja</text>
      <path fill="none" d="M990 50.0098 L990 102.0137" clip-path="url(#clipPath2)"/>
      <path d="M990 110.0137 L995 98.0137 L990 101.0137 L985 98.0137 Z" clip-path="url(#clipPath2)" stroke="none"/>
      <path fill="none" d="M720 440.0317 L720 541.978" clip-path="url(#clipPath2)"/>
      <path d="M720 549.978 L725 537.978 L720 540.978 L715 537.978 Z" clip-path="url(#clipPath2)" stroke="none"/>
      <path fill="none" d="M795.9888 719.929 L870 719.8599 L870 570 L768.0269 570" clip-path="url(#clipPath2)"/>
      <path d="M760.0269 570 L772.0269 575 L769.0269 570 L772.0269 565 Z" clip-path="url(#clipPath2)" stroke="none"/>
      <text x="829.7084" xml:space="preserve" y="754.0391" clip-path="url(#clipPath2)" font-family="sans-serif" stroke="none">Nein</text>
      <path fill="none" d="M720 590.0317 L720 639.6861" clip-path="url(#clipPath2)"/>
      <path d="M720 647.6861 L725 635.6861 L720 638.6861 L715 635.6861 Z" clip-path="url(#clipPath2)" stroke="none"/>
      <path fill="none" d="M990 -69.9902 L990 2.0312" clip-path="url(#clipPath2)"/>
      <path d="M990 10.0312 L995 -1.9688 L990 1.0312 L985 -1.9688 Z" clip-path="url(#clipPath2)" stroke="none"/>
    </g>
  </g>
</svg>
